<svg xmlns="http://www.w3.org/2000/svg" viewBox="0 0 512 512">
  <defs>
    <linearGradient id="g" x1="0" y1="0" x2="1" y2="1">
      <stop offset="0" stop-color="#E5C878"/>
      <stop offset="1" stop-color="#8A6A24"/>
    </linearGradient>
  </defs>
  <rect width="512" height="512" rx="112" fill="#FFFFFF"/>
  <rect x="8" y="8" width="496" height="496" rx="108" fill="none" stroke="url(#g)" stroke-width="6" opacity="0.5"/>
  <g transform="translate(96 84)">
    <path d="M64 16C96 16 112 32 160 32S224 16 256 16c40 0 64 32 64 72 0 52-22 76-36 132-10 42-18 100-46 100-26 0-30-56-50-86-9-12-23-12-32 0-20 30-24 86-50 86-28 0-36-58-46-100C46 164 24 140 24 88 24 48 48 16 64 16Z"
          fill="url(#g)"/>
    <path d="M104 80c18-10 38-14 56-14" stroke="#FFFFFF" stroke-width="10" stroke-linecap="round" fill="none" opacity="0.9"/>
  </g>
  <path d="M120 408 L256 360 L392 408" stroke="url(#g)" stroke-width="10" stroke-linecap="round" fill="none" opacity="0.85"/>
  <circle cx="392" cy="408" r="10" fill="#C9A24D"/>
</svg>
